# xmcd
#
# Track frame offsets:
#	150
#	12338
#	28623
#	42621
#	55461
#	75576
#	92473
#	106573
#	118688
#	132621
#
# Disc length: 1914
#
# Revision: 2
# Processed by: cddbd v1.5.1PL0 Copyright (c) Steve Scherf et al.
# Submitted via: CDmax 1.8
# Normalized: r1:DSETVAR1,TDELIM( - )
#
DISCID=7c07780a
DTITLE=Various Artist - Best of the Blues
DYEAR=1999
DGENRE=Blues
TTITLE0=Charles Brown - Trouble Blues
TTITLE1=B.B. King - The Other Night Blues
TTITLE2=Memphis Slim - Trouble in Mind
TTITLE3=Jimmy Reed - Shame Shame Shame
TTITLE4=Joe Turner - Nothin' from Nothin' Blues
TTITLE5=Johnny Otis - Low Down Dirty Dog Blues
TTITLE6=Joe Liggins - I've Got a Right to Cry
TTITLE7=Lightnin' Hopkins - Lonesome Dog Blues
TTITLE8=Ray Charles - Late in the Evening Blues
TTITLE9=Clarence Carter - Woman Don't Go Astray
EXTD=
EXTT0=
EXTT1=
EXTT2=
EXTT3=
EXTT4=
EXTT5=
EXTT6=
EXTT7=
EXTT8=
EXTT9=
PLAYORDER=
